<?xml version="1.0" encoding="utf-8"?>
<!-- Generator: Adobe Illustrator 25.4.1, SVG Export Plug-In . SVG Version: 6.00 Build 0)  -->
<svg version="1.1" id="Layer_1" xmlns="http://www.w3.org/2000/svg" xmlns:xlink="http://www.w3.org/1999/xlink" x="0px" y="0px"
	 viewBox="0 0 1435 445" style="enable-background:new 0 0 1435 445;" xml:space="preserve">
<style type="text/css">
	.st0{fill:#FFFFFF;}
	.st1{fill:url(#SVGID_1_);}
	.st2{fill:url(#SVGID_00000005970701012595337890000015154730910443350958_);}
	.st3{fill:url(#SVGID_00000074437781971328569620000003197977181283989667_);}
</style>
<g>
	<g>
		<path class="st0" d="M563.8,210.6c-4.6,0-8.9-0.8-12.9-2.3c-3.9-1.5-7.3-3.7-10.2-6.5c-2.9-2.8-5.1-6-6.8-9.8
			c-1.6-3.8-2.4-8-2.4-12.4c0-4.5,0.8-8.7,2.4-12.5c1.6-3.8,3.9-7.1,6.8-9.8c2.9-2.8,6.3-4.9,10.2-6.5c3.9-1.5,8.2-2.3,12.9-2.3
			c4.1,0,7.9,0.6,11.2,1.7c3.4,1.1,6.2,2.7,8.6,4.6l-4.6,7.7c-2.1-1.8-4.4-3.2-7-4.1c-2.6-0.9-5.4-1.3-8.3-1.3
			c-3.2,0-6.2,0.5-8.9,1.6c-2.8,1.1-5.1,2.6-7.2,4.6c-2,2-3.6,4.4-4.8,7.1c-1.2,2.8-1.8,5.8-1.8,9.1c0,3.3,0.6,6.3,1.8,9
			c1.2,2.7,2.8,5.1,4.8,7.1c2,2,4.4,3.5,7.2,4.7c2.8,1.1,5.7,1.7,8.9,1.7c3,0,5.8-0.5,8.4-1.5c2.6-1,4.9-2.3,6.9-4l4.6,7.7
			c-2.4,1.9-5.3,3.5-8.6,4.6C571.7,210,568,210.6,563.8,210.6z"/>
		<path class="st0" d="M653.3,201.1v8.6h-40.2v-60.5h9.5v51.9H653.3z"/>
		<path class="st0" d="M707,210.5c-4.6,0-8.8-0.8-12.7-2.4c-3.9-1.6-7.2-3.7-10-6.5c-2.8-2.8-5-6-6.6-9.8c-1.6-3.8-2.4-7.9-2.4-12.2
			c0-4.4,0.8-8.5,2.4-12.3c1.6-3.8,3.8-7.1,6.6-9.8c2.8-2.8,6.1-5,10-6.6c3.9-1.6,8.1-2.4,12.7-2.4s8.8,0.8,12.7,2.4
			c3.9,1.6,7.2,3.8,10,6.6c2.8,2.8,5,6.1,6.6,9.8c1.6,3.8,2.4,7.9,2.4,12.3c0,4.4-0.8,8.4-2.4,12.2c-1.6,3.8-3.8,7.1-6.6,9.8
			c-2.8,2.8-6.1,4.9-10,6.5C715.8,209.7,711.6,210.5,707,210.5z M707,201.9c3.2,0,6.2-0.6,8.9-1.7c2.7-1.1,5-2.7,7-4.7
			s3.5-4.3,4.6-7c1.1-2.7,1.7-5.7,1.7-8.9c0-3.2-0.6-6.2-1.7-9c-1.1-2.8-2.7-5.2-4.6-7.2c-2-2-4.3-3.6-7-4.7
			c-2.7-1.1-5.6-1.7-8.8-1.7c-3.2,0-6.1,0.6-8.8,1.7c-2.7,1.1-5.1,2.7-7,4.7s-3.5,4.4-4.6,7.2c-1.1,2.8-1.7,5.8-1.7,9
			c0,3.2,0.5,6.2,1.6,8.9c1.1,2.7,2.6,5,4.6,7c2,2,4.3,3.5,7,4.7C700.8,201.3,703.8,201.9,707,201.9z"/>
		<path class="st0" d="M795,210.5c-3.9,0-7.5-0.6-10.6-1.8c-3.2-1.2-5.9-2.9-8.1-5.2c-2.2-2.3-4-5.1-5.2-8.5
			c-1.2-3.4-1.9-7.3-1.9-11.7v-34.1h9.5v34.3c0,5.7,1.4,10.2,4.1,13.4c2.8,3.3,6.8,4.9,12.1,4.9s9.4-1.6,12.2-4.9
			c2.8-3.3,4.2-7.8,4.2-13.4v-34.3h9.5v34.1c0,4.4-0.6,8.3-1.9,11.7c-1.2,3.4-3,6.2-5.2,8.5c-2.2,2.3-5,4-8.1,5.2
			C802.5,209.9,798.9,210.5,795,210.5z"/>
		<path class="st0" d="M877.9,149.3c4.6,0,8.9,0.8,12.7,2.3c3.9,1.5,7.2,3.6,10,6.3c2.8,2.7,5,5.9,6.5,9.6c1.6,3.7,2.4,7.8,2.4,12.2
			c0,4.4-0.8,8.4-2.4,12.1c-1.6,3.7-3.8,6.9-6.5,9.5s-6.1,4.7-10,6.2c-3.9,1.5-8.1,2.2-12.7,2.2h-22.3v-60.5H877.9z M878,201.1
			c3.2,0,6.1-0.5,8.8-1.6s5-2.5,6.9-4.4s3.5-4.1,4.6-6.8c1.1-2.6,1.6-5.6,1.6-8.8c0-3.2-0.6-6.2-1.7-8.8s-2.6-5-4.6-6.9
			c-1.9-1.9-4.3-3.4-6.9-4.4s-5.6-1.6-8.8-1.6h-12.9v43.3H878z"/>
		<path class="st0" d="M556.7,277.3h-11.7v18.4h-9.5v-60.5h22.3c3.3,0,6.4,0.5,9.1,1.5c2.8,1,5.1,2.5,7.1,4.3c2,1.9,3.5,4.1,4.6,6.6
			c1.1,2.6,1.6,5.4,1.6,8.5c0,4.7-1.2,8.8-3.7,12.2c-2.4,3.4-5.7,5.9-9.8,7.4l15.2,19.9h-11.3L556.7,277.3z M545.1,268.7h12.2
			c3.9,0,7.1-1.2,9.6-3.5c2.4-2.3,3.6-5.3,3.6-9.1c0-3.7-1.2-6.7-3.6-8.9c-2.4-2.3-5.6-3.4-9.6-3.4h-12.2V268.7z"/>
		<path class="st0" d="M652.6,287.1v8.6h-40.8v-60.5h40.6v8.6h-31V263h27.3v8.6h-27.3v15.5H652.6z"/>
		<path class="st0" d="M738.3,235.3l-28.7,61.3H707l-28.8-61.3h10.3l19.8,42.9l19.7-42.9H738.3z"/>
		<path class="st0" d="M790.1,296.5c-4.6,0-8.8-0.8-12.7-2.4c-3.9-1.6-7.2-3.7-10-6.5s-5-6-6.6-9.8c-1.6-3.8-2.4-7.9-2.4-12.2
			c0-4.4,0.8-8.5,2.4-12.3c1.6-3.8,3.8-7.1,6.6-9.8c2.8-2.8,6.1-5,10-6.6c3.9-1.6,8.1-2.4,12.7-2.4c4.6,0,8.8,0.8,12.7,2.4
			c3.9,1.6,7.2,3.8,10,6.6c2.8,2.8,5,6.1,6.6,9.8c1.6,3.8,2.4,7.9,2.4,12.3c0,4.4-0.8,8.4-2.4,12.2c-1.6,3.8-3.8,7.1-6.6,9.8
			c-2.8,2.8-6.1,4.9-10,6.5C799,295.7,794.7,296.5,790.1,296.5z M790.1,287.9c3.2,0,6.2-0.6,8.9-1.7c2.7-1.1,5-2.7,7-4.7
			c1.9-2,3.5-4.3,4.6-7c1.1-2.7,1.7-5.7,1.7-8.9c0-3.2-0.6-6.2-1.7-9c-1.1-2.8-2.7-5.2-4.6-7.2c-2-2-4.3-3.6-7-4.7
			c-2.7-1.1-5.6-1.7-8.8-1.7c-3.2,0-6.1,0.6-8.8,1.7c-2.7,1.1-5.1,2.7-7,4.7c-2,2-3.5,4.4-4.6,7.2c-1.1,2.8-1.7,5.8-1.7,9
			c0,3.2,0.5,6.2,1.6,8.9c1.1,2.7,2.6,5,4.6,7c2,2,4.3,3.5,7,4.7C784,287.3,786.9,287.9,790.1,287.9z"/>
		<path class="st0" d="M893.6,287.1v8.6h-40.2v-60.5h9.5v51.9H893.6z"/>
		<path class="st0" d="M944.6,296.5c-3.9,0-7.5-0.6-10.6-1.8c-3.2-1.2-5.9-2.9-8.1-5.2c-2.2-2.3-4-5.1-5.2-8.5
			c-1.2-3.4-1.9-7.3-1.9-11.7v-34.1h9.5v34.3c0,5.7,1.4,10.2,4.1,13.4s6.8,4.9,12.1,4.9s9.4-1.6,12.2-4.9s4.2-7.8,4.2-13.4v-34.3
			h9.5v34.1c0,4.4-0.6,8.3-1.9,11.7c-1.2,3.4-3,6.2-5.2,8.5c-2.2,2.3-5,4-8.1,5.2C952,295.9,948.5,296.5,944.6,296.5z"/>
		<path class="st0" d="M1048.1,243.9h-20.2v51.9h-9.5v-51.9h-20.3v-8.6h50.1V243.9z"/>
		<path class="st0" d="M1076.3,235.3h9.5v60.5h-9.5V235.3z"/>
		<path class="st0" d="M1149.3,296.5c-4.6,0-8.8-0.8-12.7-2.4c-3.9-1.6-7.2-3.7-10-6.5s-5-6-6.6-9.8c-1.6-3.8-2.4-7.9-2.4-12.2
			c0-4.4,0.8-8.5,2.4-12.3c1.6-3.8,3.8-7.1,6.6-9.8c2.8-2.8,6.1-5,10-6.6c3.9-1.6,8.1-2.4,12.7-2.4c4.6,0,8.8,0.8,12.7,2.4
			c3.9,1.6,7.2,3.8,10,6.6c2.8,2.8,5,6.1,6.6,9.8c1.6,3.8,2.4,7.9,2.4,12.3c0,4.4-0.8,8.4-2.4,12.2c-1.6,3.8-3.8,7.1-6.6,9.8
			c-2.8,2.8-6.1,4.9-10,6.5C1158.2,295.7,1153.9,296.5,1149.3,296.5z M1149.3,287.9c3.2,0,6.2-0.6,8.9-1.7c2.7-1.1,5-2.7,7-4.7
			c1.9-2,3.5-4.3,4.6-7c1.1-2.7,1.7-5.7,1.7-8.9c0-3.2-0.6-6.2-1.7-9c-1.1-2.8-2.7-5.2-4.6-7.2c-2-2-4.3-3.6-7-4.7
			c-2.7-1.1-5.6-1.7-8.8-1.7c-3.2,0-6.1,0.6-8.8,1.7c-2.7,1.1-5.1,2.7-7,4.7c-2,2-3.5,4.4-4.6,7.2c-1.1,2.8-1.7,5.8-1.7,9
			c0,3.2,0.5,6.2,1.6,8.9c1.1,2.7,2.6,5,4.6,7c2,2,4.3,3.5,7,4.7C1143.2,287.3,1146.1,287.9,1149.3,287.9z"/>
		<path class="st0" d="M1265.4,235.3v61.1h-2.8l-40.4-42.6v41.9h-9.5v-61.1h2.8l40.4,42.3v-41.7H1265.4z"/>
	</g>
</g>
<g>
	<linearGradient id="SVGID_1_" gradientUnits="userSpaceOnUse" x1="145.9256" y1="284.1747" x2="454.0048" y2="284.1747">
		<stop  offset="0" style="stop-color:#0ACFFE"/>
		<stop  offset="1" style="stop-color:#007AFF"/>
	</linearGradient>
	<path class="st1" d="M446.8,232.1L446.8,232.1c-4.5-11.8-11-22.5-19.2-31.6c-3.3-3.7-9-4-12.7-0.7c-3.7,3.3-4,9-0.7,12.7
		c6.8,7.6,12.2,16.4,15.8,26.1l0,0l0,0c3.5,9.3,5.5,19.4,5.5,30c0,23.3-9.4,44.4-24.7,59.7c-15.3,15.3-36.4,24.7-59.7,24.7
		c-23.3,0-44.4-9.4-59.7-24.7s-24.7-36.4-24.7-59.7c0-0.5,0-1,0-1.5c5.6-3,9.5-8.9,9.5-15.7c0-9.8-8-17.8-17.8-17.8
		s-17.8,8-17.8,17.8c0,6.3,3.3,11.8,8.2,15c0,0.8,0,1.6,0,2.2c0,28.3,11.5,53.8,30,72.4c18.5,18.5,44.1,30,72.4,30
		c28.3,0,53.8-11.5,72.4-30c18.5-18.5,30-44.1,30-72.4C453.5,255.7,451.1,243.5,446.8,232.1z"/>
	
		<linearGradient id="SVGID_00000050631020828357277110000003519050656135409841_" gradientUnits="userSpaceOnUse" x1="145.9256" y1="177.7947" x2="454.0048" y2="177.7947">
		<stop  offset="0" style="stop-color:#0ACFFE"/>
		<stop  offset="1" style="stop-color:#007AFF"/>
	</linearGradient>
	<path style="fill:url(#SVGID_00000050631020828357277110000003519050656135409841_);" d="M208,163.1c4.8,1.2,9.6-1.8,10.8-6.6
		c4.5-18.6,15.3-34.9,30-46.4c14.3-11.3,32.4-18,52.1-18c23.3,0,44.4,9.4,59.7,24.7s24.7,36.4,24.7,59.7c0,16.2-4.5,31.3-12.4,44.1
		c-6.9,11.3-16.5,20.8-27.7,27.7c-2.7-1.6-5.8-2.5-9.1-2.5c-9.8,0-17.8,8-17.8,17.8c0,9.8,8,17.8,17.8,17.8
		c9.7,0,17.5-7.7,17.8-17.3c14-8.5,25.8-20.2,34.4-34.2c9.6-15.6,15.1-33.9,15.1-53.5c0-28.3-11.5-53.8-30-72.4
		c-18.5-18.5-44.1-30-72.4-30c-23.8,0-45.8,8.2-63.2,21.8c-17.7,13.9-30.8,33.6-36.3,56.3C200.2,157.1,203.2,161.9,208,163.1z"/>
	
		<linearGradient id="SVGID_00000064317222514821649400000009739336878661079979_" gradientUnits="userSpaceOnUse" x1="145.9256" y1="268.5104" x2="454.0048" y2="268.5104">
		<stop  offset="0" style="stop-color:#0ACFFE"/>
		<stop  offset="1" style="stop-color:#007AFF"/>
	</linearGradient>
	<path style="fill:url(#SVGID_00000064317222514821649400000009739336878661079979_);" d="M270.6,350.5c-3.1,0.8-6.4,1.3-9.9,1.8
		c-3.3,0.4-6.6,0.6-10.1,0.6c-23.3,0-44.4-9.4-59.7-24.7c-15.3-15.3-24.7-36.4-24.7-59.7c0-23.3,9.4-44.4,24.7-59.7
		c15.3-15.3,36.4-24.7,59.7-24.7c8.1,0,15.9,1.1,23.3,3.2c5.4,1.5,10.6,3.6,15.4,6.2c0,0.1,0,0.1,0,0.2c0,9.8,8,17.8,17.8,17.8
		c9.8,0,17.8-8,17.8-17.8c0-9.8-8-17.8-17.8-17.8c-3.1,0-6,0.8-8.5,2.2c-6.2-3.3-12.9-6-19.8-8c-9-2.6-18.4-3.9-28.2-3.9
		c-28.3,0-53.8,11.5-72.4,30c-18.5,18.5-30,44.1-30,72.4c0,28.3,11.5,53.8,30,72.4c18.5,18.5,44.1,30,72.4,30
		c4.1,0,8.2-0.2,12.2-0.7c4-0.5,8-1.2,12-2.2c4.8-1.2,7.8-6,6.6-10.8C280.2,352.3,275.4,349.4,270.6,350.5z"/>
</g>
</svg>
